Coordinates
version=1
nRows=5
nColumns=42
inDegrees=yes

Units are S.I. units (second, meters, Newtons, ...)
If the header above contains a line with 'inDegrees', this indicates whether rotational values are in degrees (yes) or radians (no).

endheader
time	pelvis_tilt	pelvis_list	pelvis_rotation	pelvis_tx	pelvis_ty	pelvis_tz	hip_flexion_r	hip_adduction_r	hip_rotation_r	knee_angle_r	knee_adduction_r	knee_angle_r_beta	ankle_angle_r	subtalar_angle_r	mtp_angle_r	hip_flexion_l	hip_adduction_l	hip_rotation_l	knee_angle_l	knee_adduction_l	knee_angle_l_beta	ankle_angle_l	subtalar_angle_l	mtp_angle_l	lumbar_extension	lumbar_bending	lumbar_rotation	arm_flex_r	arm_add_r	arm_rot_r	elbow_flex_r	pro_sup_r	wrist_flex_r	wrist_dev_r	arm_flex_l	arm_add_l	arm_rot_l	elbow_flex_l	pro_sup_l	wrist_flex_l	wrist_dev_l
      2.10000000	      1.47792256	      6.58361628	     15.09682630	      0.45600713	      0.89329420	      0.41439820	     20.73253866	    -17.88417669	    -20.58175087	     36.71479076	      3.38226841	      0.64079398	     12.76489960	     -0.38124304	     -7.59371590	     -0.40416233	      1.03089589	     -1.80949340	      1.81166193	      5.37594043	      0.03161947	      8.81352634	     29.84015079	     -7.59371590	    -20.45329733	     -5.74961888	     -5.62115101	    -11.37438467	    -12.16272802	    -19.35858393	     75.28262003	     90.00000001	      0.00000000	      0.00000000	      4.54738089	    -26.05635966	     15.34736247	     88.58615215	     90.00000001	      0.00000000	      0.00000000
      2.11000000	      0.90326925	      6.88335787	     15.39245169	      0.45963130	      0.89224986	      0.41518157	     20.84725535	    -17.92377747	    -20.34300774	     34.33197790	      3.48889553	      0.59920605	     12.04573189	      0.55365444	     -7.59241577	     -0.05728261	      1.44962260	     -1.62174851	      1.89019084	      5.20363680	      0.03299005	      8.96197535	     29.95284059	     -7.59241577	    -19.98699754	     -6.05873214	     -5.70446961	    -11.25816113	    -11.97353643	    -19.07592745	     74.81515426	     90.00000001	      0.00000000	      0.00000000	      4.73349677	    -26.19950072	     15.70268405	     88.89514533	     90.00000001	      0.00000000	      0.00000000
      2.12000000	      0.74823240	      7.02898410	     15.79294314	      0.46363031	      0.89196373	      0.41601974	     20.26229907	    -17.73771916	    -20.58439262	     32.09411999	      3.55566389	      0.56014806	     11.43512402	      1.52333296	     -7.59064562	     -0.17521536	      1.46684720	     -1.28049209	      1.88404018	      5.23535144	      0.03288270	      9.26963543	     30.20578573	     -7.59064562	    -19.88210294	     -6.08077249	     -5.80061091	    -11.04666597	    -11.89519890	    -18.77595577	     74.06543885	     90.00000001	      0.00000000	      0.00000000	      4.99598502	    -26.28801210	     16.10838550	     89.10864586	     90.00000001	      0.00000000	      0.00000000
      2.13000000	      0.93087054	      7.03610940	     16.26846382	      0.46780921	      0.89227400	      0.41711057	     19.24168987	    -17.18958128	    -21.36935272	     30.10256458	      3.16825609	      0.52538887	     11.02131211	      2.74589509	     -7.58686241	     -0.58412193	      1.20304385	     -1.07452991	      1.92368745	      5.26433459	      0.03357468	      9.53222672	     30.52462572	     -7.58686241	    -20.09828520	     -5.85404487	     -5.96273754	    -10.80283595	    -11.76475543	    -18.50742436	     73.61324900	     90.00000001	      0.00000000	      0.00000000	      5.27170165	    -26.34151010	     16.39176216	     89.33923497	     90.00000001	      0.00000000	      0.00000000
      2.14000000	      0.61226209	      7.21798980	     16.65614731	      0.47169428	      0.89187954	      0.41822643	     19.05872749	    -17.08769255	    -21.42027857	     28.99181118	      3.02554423	      0.50600256	     10.78558627	      3.23019381	     -7.58571389	     -0.45946028	      1.40877027	     -0.79389782	      2.04093744	      5.06165181	      0.03562108	      9.69949476	     30.65021353	     -7.58571389	    -19.81590025	     -5.99578230	     -6.07126478	    -10.56672855	    -11.61734736	    -18.31450410	     73.07779167	     90.00000001	      0.00000000	      0.00000000	      5.47836075	    -26.37164440	     16.71445579	     89.51722890	     90.00000001	      0.00000000	      0.00000000
